# xmcd CD database file
#
# Track frame offsets:
#	150
#	30416
#	51275
#	54591
#	92983
#	95282
#	118631
#	122695
#	151890
#	153537
#	193895
#	198143
#	229862
#	244051
#	245802
#
# Disc length: 3627 seconds
#
# Revision: 0
# Processed by: cddbd v1.4PL0 Copyright (c) Steve Scherf et al.
# Submitted via: CDex 1.50Beta7
#
DISCID=c80e290f
DTITLE=RasinHill - RasinHill
DYEAR=2002
DGENRE=Jazz
TTITLE0=Nameless
TTITLE1=V.S.S
TTITLE2=Tippy-toes
TTITLE3=The Ridge
TTITLE4=Jokes
TTITLE5=The Road Song
TTITLE6=One in the Bag
TTITLE7=Soul Jive
TTITLE8=Get Up and Grow Up
TTITLE9=Wendy
TTITLE10=She Likes Me
TTITLE11=Maker's March
TTITLE12=Junior
TTITLE13=Woes be Gone
TTITLE14=Detriot
EXTD=YEAR: 2002
EXTT0=
EXTT1=
EXTT2=
EXTT3=
EXTT4=
EXTT5=
EXTT6=
EXTT7=
EXTT8=
EXTT9=
EXTT10=
EXTT11=
EXTT12=
EXTT13=
EXTT14=
PLAYORDER=
